<mxfile host="app.diagrams.net" modified="2022-06-13T05:21:47.545Z" agent="5.0 (Windows NT 10.0; Win64; x64) AppleWebKit/537.36 (KHTML, like Gecko) Chrome/102.0.5005.63 Safari/537.36" etag="tQ2QkFLMPq87lsQmyjGY" version="17.4.2" type="github">
  <diagram id="C5RBs43oDa-KdzZeNtuy" name="Page-1">
    <mxGraphModel dx="2370" dy="1323" grid="1" gridSize="10" guides="1" tooltips="1" connect="1" arrows="1" fold="1" page="1" pageScale="1" pageWidth="827" pageHeight="1169" math="0" shadow="0">
      <root>
        <mxCell id="WIyWlLk6GJQsqaUBKTNV-0" />
        <mxCell id="WIyWlLk6GJQsqaUBKTNV-1" parent="WIyWlLk6GJQsqaUBKTNV-0" />
        <mxCell id="lxbJdExwbThtZIv_YLgy-26" style="edgeStyle=orthogonalEdgeStyle;rounded=0;orthogonalLoop=1;jettySize=auto;html=1;" edge="1" parent="WIyWlLk6GJQsqaUBKTNV-1" source="lxbJdExwbThtZIv_YLgy-2" target="lxbJdExwbThtZIv_YLgy-3">
          <mxGeometry relative="1" as="geometry" />
        </mxCell>
        <mxCell id="lxbJdExwbThtZIv_YLgy-2" value="start&lt;br&gt;inkremental_job" style="rounded=1;whiteSpace=wrap;html=1;fontSize=12;glass=0;strokeWidth=1;shadow=0;" vertex="1" parent="WIyWlLk6GJQsqaUBKTNV-1">
          <mxGeometry x="4" y="30" width="180" height="60" as="geometry" />
        </mxCell>
        <mxCell id="lxbJdExwbThtZIv_YLgy-5" style="edgeStyle=orthogonalEdgeStyle;rounded=0;orthogonalLoop=1;jettySize=auto;html=1;exitX=1;exitY=0.5;exitDx=0;exitDy=0;" edge="1" parent="WIyWlLk6GJQsqaUBKTNV-1" source="lxbJdExwbThtZIv_YLgy-3" target="lxbJdExwbThtZIv_YLgy-4">
          <mxGeometry relative="1" as="geometry" />
        </mxCell>
        <mxCell id="lxbJdExwbThtZIv_YLgy-8" value="Jika hari ini sudah pernah&lt;br&gt;&amp;nbsp;melakukan backup" style="edgeLabel;html=1;align=center;verticalAlign=middle;resizable=0;points=[];" vertex="1" connectable="0" parent="lxbJdExwbThtZIv_YLgy-5">
          <mxGeometry x="-0.2833" y="1" relative="1" as="geometry">
            <mxPoint x="16" y="-29" as="offset" />
          </mxGeometry>
        </mxCell>
        <mxCell id="lxbJdExwbThtZIv_YLgy-27" style="edgeStyle=orthogonalEdgeStyle;rounded=0;orthogonalLoop=1;jettySize=auto;html=1;exitX=0.5;exitY=1;exitDx=0;exitDy=0;entryX=0.5;entryY=0;entryDx=0;entryDy=0;" edge="1" parent="WIyWlLk6GJQsqaUBKTNV-1" source="lxbJdExwbThtZIv_YLgy-3" target="lxbJdExwbThtZIv_YLgy-9">
          <mxGeometry relative="1" as="geometry" />
        </mxCell>
        <mxCell id="lxbJdExwbThtZIv_YLgy-3" value="Cek log backup&lt;br&gt;" style="rhombus;whiteSpace=wrap;html=1;shadow=0;fontFamily=Helvetica;fontSize=12;align=center;strokeWidth=1;spacing=6;spacingTop=-4;" vertex="1" parent="WIyWlLk6GJQsqaUBKTNV-1">
          <mxGeometry x="14" y="130" width="160" height="80" as="geometry" />
        </mxCell>
        <mxCell id="lxbJdExwbThtZIv_YLgy-4" value="Berhenti dan tampilkan error sudah melakukan backup" style="rounded=1;whiteSpace=wrap;html=1;fontSize=12;glass=0;strokeWidth=1;shadow=0;" vertex="1" parent="WIyWlLk6GJQsqaUBKTNV-1">
          <mxGeometry x="464" y="135" width="200" height="70" as="geometry" />
        </mxCell>
        <mxCell id="lxbJdExwbThtZIv_YLgy-18" style="edgeStyle=orthogonalEdgeStyle;rounded=0;orthogonalLoop=1;jettySize=auto;html=1;exitX=1;exitY=0.5;exitDx=0;exitDy=0;entryX=0;entryY=0.5;entryDx=0;entryDy=0;" edge="1" parent="WIyWlLk6GJQsqaUBKTNV-1" source="lxbJdExwbThtZIv_YLgy-9" target="lxbJdExwbThtZIv_YLgy-10">
          <mxGeometry relative="1" as="geometry" />
        </mxCell>
        <mxCell id="lxbJdExwbThtZIv_YLgy-9" value="Jalankan Background job" style="rounded=1;whiteSpace=wrap;html=1;fontSize=12;glass=0;strokeWidth=1;shadow=0;" vertex="1" parent="WIyWlLk6GJQsqaUBKTNV-1">
          <mxGeometry x="4" y="250" width="180" height="60" as="geometry" />
        </mxCell>
        <mxCell id="lxbJdExwbThtZIv_YLgy-19" style="edgeStyle=orthogonalEdgeStyle;rounded=0;orthogonalLoop=1;jettySize=auto;html=1;exitX=0.5;exitY=1;exitDx=0;exitDy=0;entryX=0.5;entryY=0;entryDx=0;entryDy=0;" edge="1" parent="WIyWlLk6GJQsqaUBKTNV-1" source="lxbJdExwbThtZIv_YLgy-10" target="lxbJdExwbThtZIv_YLgy-12">
          <mxGeometry relative="1" as="geometry" />
        </mxCell>
        <mxCell id="lxbJdExwbThtZIv_YLgy-10" value="job controller" style="rounded=1;whiteSpace=wrap;html=1;fontSize=12;glass=0;strokeWidth=1;shadow=0;" vertex="1" parent="WIyWlLk6GJQsqaUBKTNV-1">
          <mxGeometry x="344" y="250" width="180" height="60" as="geometry" />
        </mxCell>
        <mxCell id="lxbJdExwbThtZIv_YLgy-23" style="edgeStyle=orthogonalEdgeStyle;rounded=0;orthogonalLoop=1;jettySize=auto;html=1;exitX=0.5;exitY=1;exitDx=0;exitDy=0;entryX=0.5;entryY=0;entryDx=0;entryDy=0;" edge="1" parent="WIyWlLk6GJQsqaUBKTNV-1" source="lxbJdExwbThtZIv_YLgy-11" target="lxbJdExwbThtZIv_YLgy-13">
          <mxGeometry relative="1" as="geometry" />
        </mxCell>
        <mxCell id="lxbJdExwbThtZIv_YLgy-11" value="buat log backup dengan &lt;br&gt;value status = 0" style="rounded=1;whiteSpace=wrap;html=1;" vertex="1" parent="WIyWlLk6GJQsqaUBKTNV-1">
          <mxGeometry x="4" y="400" width="180" height="60" as="geometry" />
        </mxCell>
        <mxCell id="lxbJdExwbThtZIv_YLgy-20" style="edgeStyle=orthogonalEdgeStyle;rounded=0;orthogonalLoop=1;jettySize=auto;html=1;exitX=0;exitY=0.5;exitDx=0;exitDy=0;entryX=1;entryY=0.5;entryDx=0;entryDy=0;" edge="1" parent="WIyWlLk6GJQsqaUBKTNV-1" source="lxbJdExwbThtZIv_YLgy-12" target="lxbJdExwbThtZIv_YLgy-11">
          <mxGeometry relative="1" as="geometry" />
        </mxCell>
        <mxCell id="lxbJdExwbThtZIv_YLgy-22" style="edgeStyle=orthogonalEdgeStyle;rounded=0;orthogonalLoop=1;jettySize=auto;html=1;" edge="1" parent="WIyWlLk6GJQsqaUBKTNV-1" source="lxbJdExwbThtZIv_YLgy-12" target="lxbJdExwbThtZIv_YLgy-21">
          <mxGeometry relative="1" as="geometry" />
        </mxCell>
        <mxCell id="lxbJdExwbThtZIv_YLgy-12" value="Cek Akses by cli" style="rhombus;whiteSpace=wrap;html=1;shadow=0;fontFamily=Helvetica;fontSize=12;align=center;strokeWidth=1;spacing=6;spacingTop=-4;" vertex="1" parent="WIyWlLk6GJQsqaUBKTNV-1">
          <mxGeometry x="354" y="390" width="160" height="80" as="geometry" />
        </mxCell>
        <mxCell id="lxbJdExwbThtZIv_YLgy-24" style="edgeStyle=orthogonalEdgeStyle;rounded=0;orthogonalLoop=1;jettySize=auto;html=1;exitX=1;exitY=0.5;exitDx=0;exitDy=0;entryX=0;entryY=0.5;entryDx=0;entryDy=0;" edge="1" parent="WIyWlLk6GJQsqaUBKTNV-1" source="lxbJdExwbThtZIv_YLgy-13" target="lxbJdExwbThtZIv_YLgy-14">
          <mxGeometry relative="1" as="geometry" />
        </mxCell>
        <mxCell id="lxbJdExwbThtZIv_YLgy-13" value="lakukan backup" style="rounded=1;whiteSpace=wrap;html=1;" vertex="1" parent="WIyWlLk6GJQsqaUBKTNV-1">
          <mxGeometry x="4" y="520" width="180" height="60" as="geometry" />
        </mxCell>
        <mxCell id="lxbJdExwbThtZIv_YLgy-25" style="edgeStyle=orthogonalEdgeStyle;rounded=0;orthogonalLoop=1;jettySize=auto;html=1;exitX=0.5;exitY=1;exitDx=0;exitDy=0;entryX=0.5;entryY=0;entryDx=0;entryDy=0;" edge="1" parent="WIyWlLk6GJQsqaUBKTNV-1" source="lxbJdExwbThtZIv_YLgy-14" target="lxbJdExwbThtZIv_YLgy-15">
          <mxGeometry relative="1" as="geometry" />
        </mxCell>
        <mxCell id="lxbJdExwbThtZIv_YLgy-14" value="update log backup dengan value status = 1" style="rounded=1;whiteSpace=wrap;html=1;" vertex="1" parent="WIyWlLk6GJQsqaUBKTNV-1">
          <mxGeometry x="354" y="520" width="180" height="60" as="geometry" />
        </mxCell>
        <mxCell id="lxbJdExwbThtZIv_YLgy-15" value="Selesai" style="rounded=1;whiteSpace=wrap;html=1;" vertex="1" parent="WIyWlLk6GJQsqaUBKTNV-1">
          <mxGeometry x="394" y="610" width="120" height="60" as="geometry" />
        </mxCell>
        <mxCell id="lxbJdExwbThtZIv_YLgy-21" value="Stop" style="rounded=1;whiteSpace=wrap;html=1;fontSize=12;glass=0;strokeWidth=1;shadow=0;" vertex="1" parent="WIyWlLk6GJQsqaUBKTNV-1">
          <mxGeometry x="624" y="395" width="200" height="70" as="geometry" />
        </mxCell>
      </root>
    </mxGraphModel>
  </diagram>
</mxfile>
